<svg xmlns="http://www.w3.org/2000/svg" width="965" height="398" viewBox="0 0 965 398">
<rect width="100%" height="100%" fill="white"/>
<text x="28" y="34" font-family="Arial, sans-serif" font-size="22" font-weight="700" fill="#111827">Non Specific Active Suicidal Thoughts</text>
<text x="28" y="60" font-family="Arial, sans-serif" font-size="14" fill="#4b5563">Usable text-file IDs: 433</text>
<text x="28" y="102" font-family="Arial, sans-serif" font-size="13" fill="#111827">false</text>
<rect x="282" y="86" width="520" height="30" rx="3" fill="#eef2f7"/>
<rect x="282" y="86" width="520" height="30" rx="3" fill="#2563eb"/>
<text x="820" y="106" font-family="Arial, sans-serif" font-size="13" fill="#111827">228 (52.7%)</text>
<text x="28" y="156" font-family="Arial, sans-serif" font-size="13" fill="#111827">true</text>
<rect x="282" y="140" width="520" height="30" rx="3" fill="#eef2f7"/>
<rect x="282" y="140" width="287" height="30" rx="3" fill="#2563eb"/>
<text x="820" y="160" font-family="Arial, sans-serif" font-size="13" fill="#111827">126 (29.1%)</text>
<text x="28" y="210" font-family="Arial, sans-serif" font-size="13" fill="#111827">operator_did_not_ask</text>
<rect x="282" y="194" width="520" height="30" rx="3" fill="#eef2f7"/>
<rect x="282" y="194" width="109" height="30" rx="3" fill="#2563eb"/>
<text x="820" y="214" font-family="Arial, sans-serif" font-size="13" fill="#111827">48 (11.1%)</text>
<text x="28" y="264" font-family="Arial, sans-serif" font-size="13" fill="#111827">does_not_apply</text>
<rect x="282" y="248" width="520" height="30" rx="3" fill="#eef2f7"/>
<rect x="282" y="248" width="61" height="30" rx="3" fill="#2563eb"/>
<text x="820" y="268" font-family="Arial, sans-serif" font-size="13" fill="#111827">27 (6.2%)</text>
<text x="28" y="318" font-family="Arial, sans-serif" font-size="13" fill="#111827">no_response</text>
<rect x="282" y="302" width="520" height="30" rx="3" fill="#eef2f7"/>
<rect x="282" y="302" width="9" height="30" rx="3" fill="#2563eb"/>
<text x="820" y="322" font-family="Arial, sans-serif" font-size="13" fill="#111827">4 (0.9%)</text>
</svg>
